<svg xmlns="http://www.w3.org/2000/svg" viewBox="0 0 500 500"><g id="freepik--Sofa--inject-16"><path d="M410.49,363.38c-1.59-5.95-13.8-15.09-32.13-22.13,6-22.75,8.66-55.66,7.29-78.8-.41-6.92-1.3-14.21-5.5-19.72-4.78-6.28-12.84-9-20.47-11A270,270,0,0,0,283.6,223c-24.31.68-48.51,4.66-72.83,4-18.81-.47-39-3.4-55.32,5.92-15.56,8.87-23.73,27.28-24.94,45.16-.62,9.23,1.33,21.48,4,33.55a28.93,28.93,0,0,0-4.94-2.57c-8.25-3.26-17.7-2.06-25.94,1.21-9.1,3.6-17.56,10.14-20.91,19.33a25.25,25.25,0,0,0,19.88,33.58l-.06.12h-.07v79.67a19.22,19.22,0,0,0,19.22,19.22H393a17.63,17.63,0,0,0,17.63-17.63V363.38Z" style="fill:#455a64"></path><path d="M103.75,331s0-.08.07-.21a4.63,4.63,0,0,1,.28-.59,7.13,7.13,0,0,1,1.58-1.93,12.41,12.41,0,0,1,8.64-2.65,12,12,0,0,1,6,2.05,13.43,13.43,0,0,1,4.72,5.54,17.12,17.12,0,0,1-1.26,16.12,12.78,12.78,0,0,1-6.75,5.32,10.79,10.79,0,0,1-8-.39,12,12,0,0,1-5.15-5.13,22.84,22.84,0,0,1-2.21-5.95,16.3,16.3,0,0,1,0-5.24,32.76,32.76,0,0,1,.72-3.87,13.11,13.11,0,0,1,.8-2.36,3.63,3.63,0,0,1,.34-.56c.11-.11.16-.16.17-.15a3.87,3.87,0,0,0-.41.75,14.29,14.29,0,0,0-.7,2.36A35.2,35.2,0,0,0,102,338a16.07,16.07,0,0,0,0,5.13,22.82,22.82,0,0,0,2.23,5.81,11.55,11.55,0,0,0,5,4.91,10.39,10.39,0,0,0,7.62.34,12.33,12.33,0,0,0,6.48-5.13,16.67,16.67,0,0,0,1.25-15.63,13.06,13.06,0,0,0-4.52-5.38A11.74,11.74,0,0,0,114.3,326a12.49,12.49,0,0,0-8.49,2.44A8.42,8.42,0,0,0,103.75,331Z" style="fill:#263238"></path><path d="M147.36,462.36a1.85,1.85,0,0,1,0-.41c0-.29,0-.69,0-1.19,0-1.08.05-2.61.08-4.58.06-4,.16-9.73.17-16.84.09-14.22-.29-33.87-.12-55.58.06-5.42.15-10.72.31-15.84s.25-10,.22-14.74-.06-9.17-.09-13.36c0-2.09,0-4.11,0-6.05a20.93,20.93,0,0,0-.72-5.46,26.34,26.34,0,0,0-4.13-8.54,29.78,29.78,0,0,0-4.84-5.32c-.74-.67-1.46-1.17-2.06-1.65s-1.17-.79-1.61-1.06l-1-.61a1.75,1.75,0,0,1-.34-.22,1.71,1.71,0,0,1,.37.18l1,.56c.46.26,1,.62,1.65,1s1.35.95,2.1,1.61a29.75,29.75,0,0,1,5,5.3,26.59,26.59,0,0,1,4.24,8.62,21.21,21.21,0,0,1,.77,5.56q0,2.91,0,6.05c0,4.18.08,8.65.13,13.35s0,9.65-.19,14.76-.24,10.41-.3,15.84c-.17,21.69.15,41.34,0,55.57-.06,7.11-.21,12.87-.33,16.84-.08,2-.14,3.51-.18,4.58,0,.5-.05.9-.06,1.19A2.64,2.64,0,0,1,147.36,462.36Z" style="fill:#263238"></path><path d="M369.48,340.16c0,.14-48.11.26-107.44.26s-107.45-.12-107.45-.26,48.1-.26,107.45-.26S369.48,340,369.48,340.16Z" style="fill:#263238"></path><path d="M370.25,364.48c0,.15-49.73.26-111,.26s-111.06-.11-111.06-.26,49.72-.26,111.06-.26S370.25,364.34,370.25,364.48Z" style="fill:#263238"></path><path d="M370.35,422c0,.14-49.75.26-111.1.26s-111.11-.12-111.11-.26,49.74-.26,111.11-.26S370.35,421.89,370.35,422Z" style="fill:#263238"></path><path d="M410.53,364.53a26.46,26.46,0,0,0,24-35.48c-3.5-9.62-12.36-16.46-21.88-20.23-8.63-3.43-18.53-4.69-27.16-1.27-9,3.56-15.34,11.55-21.25,19.2-2.57,3.33-5.26,7.72-3.27,11.43,1.74,3.27,6,3.9,9.51,5.18A19.67,19.67,0,0,1,380,351c1.89,2.91,3,6.31,5.24,9,3.08,3.66,8,5.44,12.74,5.76s9.54-.62,14.24-1.57" style="fill:#455a64"></path><rect x="132.56" y="462.14" width="31.64" height="17.62" style="fill:#263238"></rect><rect x="354.53" y="462.14" width="31.64" height="17.62" style="fill:#263238"></rect><path d="M189.31,281.83c0,.05-.33.26-.79.83a5.3,5.3,0,0,0,.41,6.9,3.93,3.93,0,0,0,2.34,1,5.29,5.29,0,0,0,4.83-2.38,3.85,3.85,0,0,0,.62-2.47,5.15,5.15,0,0,0-2.32-3.67,5.25,5.25,0,0,0-2.89-.88c-.73,0-1.12.18-1.14.12s.09-.06.28-.13a3.39,3.39,0,0,1,.85-.19,5.1,5.1,0,0,1,3.1.77,5.43,5.43,0,0,1,2.6,3.93,4.41,4.41,0,0,1-.66,2.79,5.79,5.79,0,0,1-2.3,2,5.93,5.93,0,0,1-3,.57,4.45,4.45,0,0,1-2.62-1.19,5.42,5.42,0,0,1-1.51-4.46,5,5,0,0,1,1.28-2.92A3.75,3.75,0,0,1,189,282,1,1,0,0,1,189.31,281.83Z" style="fill:#263238"></path><path d="M410.82,325.94a10.86,10.86,0,0,1,1.55,3A16.65,16.65,0,0,1,413,338a16.37,16.37,0,0,1-2.45,5.87,12.94,12.94,0,0,1-5.56,4.71,11.28,11.28,0,0,1-8,.4,11.72,11.72,0,0,1-6.31-5.84,23.1,23.1,0,0,1-1.78-4.48,23.75,23.75,0,0,1-.89-4.58,11.5,11.5,0,0,1,.45-4.46,27.49,27.49,0,0,1,1.61-3.92v0a8.85,8.85,0,0,1,3.63-3.89,13.88,13.88,0,0,1,4.52-1.69,11.75,11.75,0,0,1,4.25-.08,12.53,12.53,0,0,1,3.44,1.17,12.87,12.87,0,0,1,4,3.19,10.07,10.07,0,0,1,.8,1.09,3,3,0,0,1,.23.4s-.37-.51-1.14-1.39a13.28,13.28,0,0,0-4-3,11.84,11.84,0,0,0-3.36-1.09,11.58,11.58,0,0,0-4.13.12,13.44,13.44,0,0,0-4.36,1.69,8.39,8.39,0,0,0-3.42,3.69h0c-1.15,2.41-2.33,5.13-2,8.12a23.19,23.19,0,0,0,.88,4.48,22.71,22.71,0,0,0,1.74,4.38,11.21,11.21,0,0,0,6,5.6,10.8,10.8,0,0,0,7.65-.37,12.4,12.4,0,0,0,5.39-4.51,16.2,16.2,0,0,0,2.45-5.7,16.87,16.87,0,0,0-.41-9,15.36,15.36,0,0,0-1-2.27A5.69,5.69,0,0,1,410.82,325.94Z" style="fill:#263238"></path><path d="M404.67,312.42a8,8,0,0,1-1.2,8.21,21.84,21.84,0,0,0,1.24-4A23.34,23.34,0,0,0,404.67,312.42Z" style="fill:#263238"></path><path d="M410.69,315.47c.06,0,.14.47,0,1.23a6.58,6.58,0,0,1-3.44,4.66,2.28,2.28,0,0,1-1.17.36,12.37,12.37,0,0,0,3-2.6A11.73,11.73,0,0,0,410.69,315.47Z" style="fill:#263238"></path><path d="M401.09,356.76a13.29,13.29,0,0,0,.3-3.48,13.85,13.85,0,0,0-1.05-3.33s.37.23.73.8a6.05,6.05,0,0,1,.56,5.07C401.4,356.45,401.15,356.78,401.09,356.76Z" style="fill:#263238"></path><path d="M407.87,355.87a9,9,0,0,0-3.15-7.16s.48.12,1.07.61a6.59,6.59,0,0,1,1.79,2.4,6.66,6.66,0,0,1,.57,2.94C408.1,355.43,407.93,355.88,407.87,355.87Z" style="fill:#263238"></path><path d="M390.81,305.77a1.16,1.16,0,0,1-.25.15l-.75.39-1.24.63c-.49.26-1,.61-1.63,1a19.68,19.68,0,0,0-2,1.33c-.35.26-.73.51-1.1.81l-1.14,1a12.87,12.87,0,0,0-1.17,1.07l-1.22,1.2c-.76.89-1.61,1.8-2.37,2.87a43.23,43.23,0,0,0-7.35,17,66.19,66.19,0,0,0-1.39,11.2,71.86,71.86,0,0,0,.52,12.33v0c0,7.21.07,15,.11,23.07.19,22.74.36,43.32.49,58.24,0,7.43,0,13.46,0,17.65,0,2.06,0,3.67,0,4.8,0,.53,0,.94,0,1.25a3.33,3.33,0,0,1,0,.42,2.24,2.24,0,0,1,0-.42c0-.31,0-.72,0-1.25,0-1.13,0-2.74-.05-4.8,0-4.19-.1-10.22-.18-17.65-.16-14.92-.39-35.5-.64-58.23,0-8.07-.06-15.87-.09-23.08v0a69.93,69.93,0,0,1-.49-12.42,65,65,0,0,1,1.43-11.27A43.3,43.3,0,0,1,377.7,316c.77-1.07,1.64-2,2.42-2.87l1.23-1.2a14.63,14.63,0,0,1,1.2-1.07l1.16-.95c.37-.31.77-.55,1.12-.81a19.47,19.47,0,0,1,2-1.31c.63-.35,1.17-.7,1.66-.94l1.26-.6.77-.35Z" style="fill:#263238"></path><path d="M181.16,261.89c.09,0,0,1.29.14,3.35a25.65,25.65,0,0,0,6,14.59c1.34,1.56,2.32,2.39,2.26,2.47a3.23,3.23,0,0,1-.74-.53,16.92,16.92,0,0,1-1.79-1.7,23.34,23.34,0,0,1-4.38-6.86,23.59,23.59,0,0,1-1.74-7.95,16,16,0,0,1,.08-2.47A2.87,2.87,0,0,1,181.16,261.89Z" style="fill:#263238"></path><path d="M206.92,267.71a9.9,9.9,0,0,1-.77,2.65,29,29,0,0,1-7.43,10.95,10.4,10.4,0,0,1-2.17,1.69,22.5,22.5,0,0,1,1.92-2,37.9,37.9,0,0,0,4.17-5.07,37.44,37.44,0,0,0,3.17-5.75A21.92,21.92,0,0,1,206.92,267.71Z" style="fill:#263238"></path><path d="M183.54,312a2.9,2.9,0,0,1-.38-.86,21.1,21.1,0,0,1-.71-2.48,19.62,19.62,0,0,1-.12-8.49,14.3,14.3,0,0,1,4.18-7.36,10.46,10.46,0,0,1,2.11-1.5,2.72,2.72,0,0,1,.87-.36,23.64,23.64,0,0,0-2.73,2.13,14.83,14.83,0,0,0-3.92,7.21,21.15,21.15,0,0,0,0,8.3C183.2,310.65,183.62,311.93,183.54,312Z" style="fill:#263238"></path><path d="M124.39,401.68a77.1,77.1,0,0,1-5-7.19,73.59,73.59,0,0,1-4.58-7.48,73.38,73.38,0,0,1,5,7.19A73.59,73.59,0,0,1,124.39,401.68Z" style="fill:#fafafa"></path><path d="M132.48,415.94a86.48,86.48,0,0,1-6.69,6.66,86.29,86.29,0,0,1-7,6.29,87.56,87.56,0,0,1,6.69-6.67A85.26,85.26,0,0,1,132.48,415.94Z" style="fill:#fafafa"></path><path d="M141.51,364.26a70.05,70.05,0,0,1-6.76,5.39,72.4,72.4,0,0,1-7.06,5,69.1,69.1,0,0,1,6.75-5.39A73.9,73.9,0,0,1,141.51,364.26Z" style="fill:#fafafa"></path><path d="M139.93,399.74a58.24,58.24,0,0,1-1.83-10.8,28.52,28.52,0,0,1,1.17,5.36A28.83,28.83,0,0,1,139.93,399.74Z" style="fill:#fafafa"></path><path d="M130.15,452.63a8.49,8.49,0,0,1-2.17-1,30.72,30.72,0,0,1-8.81-7.4,8.61,8.61,0,0,1-1.36-2c.13-.1,2.32,2.83,5.75,5.69S130.23,452.49,130.15,452.63Z" style="fill:#fafafa"></path><path d="M109.93,363.75c0-.12,1.15.53,1.59,1.94a2.74,2.74,0,0,1-.16,2.51,17.86,17.86,0,0,0-.33-2.35C110.64,364.61,109.83,363.87,109.93,363.75Z" style="fill:#fafafa"></path><path d="M91.65,334.64a20.54,20.54,0,0,1-1.49,4.3,19.46,19.46,0,0,1-2,4.09,20.09,20.09,0,0,1,1.49-4.29A19.44,19.44,0,0,1,91.65,334.64Z" style="fill:#fafafa"></path><path d="M118.31,319.83a11.57,11.57,0,0,1-7.9-4.94c.12-.1,1.51,1.51,3.7,2.86S118.35,319.68,118.31,319.83Z" style="fill:#fafafa"></path><path d="M135.12,332.67c-.16,0,.45-2.66.28-5.95s-1-5.85-.81-5.9a16.88,16.88,0,0,1,.53,11.85Z" style="fill:#fafafa"></path><path d="M171.13,449.67a55.83,55.83,0,0,1-5.85-5,54.67,54.67,0,0,1-5.5-5.38,60,60,0,0,1,5.85,5A57.37,57.37,0,0,1,171.13,449.67Z" style="fill:#fafafa"></path><path d="M189.49,446.25a85,85,0,0,1,5-12.32,41.64,41.64,0,0,1-2.25,6.26A42.09,42.09,0,0,1,189.49,446.25Z" style="fill:#fafafa"></path><path d="M162.18,416.14a59.74,59.74,0,0,1-5.94-9.37,29.9,29.9,0,0,1,3.19,4.54A29.81,29.81,0,0,1,162.18,416.14Z" style="fill:#fafafa"></path><path d="M219.47,378.47a6,6,0,0,1-1.75.82,21.76,21.76,0,0,1-4.51,1.09,22.3,22.3,0,0,1-4.65.14,5.78,5.78,0,0,1-1.9-.32c0-.16,2.93.16,6.48-.33S219.41,378.32,219.47,378.47Z" style="fill:#fafafa"></path><path d="M222.94,408.68c-.15-.07,1.45-3.15,2.55-7.25s1.29-7.56,1.46-7.54a8.29,8.29,0,0,1,0,2.27,29.73,29.73,0,0,1-.95,5.41,30.21,30.21,0,0,1-1.91,5.14A8.2,8.2,0,0,1,222.94,408.68Z" style="fill:#fafafa"></path><path d="M237.78,448.68a11.85,11.85,0,0,1-1-2.13c-.55-1.33-1.33-3.16-2.28-5.13s-1.9-3.72-2.6-5a11.53,11.53,0,0,1-1.07-2.07,9.7,9.7,0,0,1,1.39,1.88,48.66,48.66,0,0,1,4.91,10.17A9.62,9.62,0,0,1,237.78,448.68Z" style="fill:#fafafa"></path><path d="M345.62,437.06a81.21,81.21,0,0,1-6.35,6.49,78.17,78.17,0,0,1-6.71,6.11,79.15,79.15,0,0,1,6.35-6.49A76.45,76.45,0,0,1,345.62,437.06Z" style="fill:#fafafa"></path><path d="M324.66,407.22a7.65,7.65,0,0,1-2-1,32.45,32.45,0,0,1-4.32-3.2,32.07,32.07,0,0,1-3.76-3.85,7.9,7.9,0,0,1-1.28-1.82c.13-.1,2.24,2.56,5.38,5.28S324.74,407.08,324.66,407.22Z" style="fill:#fafafa"></path><path d="M331.72,383.11a52.22,52.22,0,0,1,3.54-6.27,51.38,51.38,0,0,1,4-6,48.89,48.89,0,0,1-3.53,6.27A48.29,48.29,0,0,1,331.72,383.11Z" style="fill:#fafafa"></path><path d="M351.8,405.72a54.16,54.16,0,0,0,2.16-6.26,53.32,53.32,0,0,0,.85-6.57,6,6,0,0,1,.2,2,20.81,20.81,0,0,1-2.16,9.21A5.72,5.72,0,0,1,351.8,405.72Z" style="fill:#fafafa"></path><path d="M394.82,443.21a12,12,0,0,1-1.9-1.77c-1.11-1.14-2.58-2.79-4.11-4.69s-2.81-3.69-3.69-5a11.89,11.89,0,0,1-1.31-2.23,13.75,13.75,0,0,1,1.61,2c1,1.27,2.28,3,3.8,4.92s2.94,3.56,4,4.77A13.8,13.8,0,0,1,394.82,443.21Z" style="fill:#fafafa"></path><path d="M388.81,409.63a13.08,13.08,0,0,1,2-1.49c1.25-.88,3-2.1,4.82-3.51s3.48-2.75,4.66-3.72a14,14,0,0,1,2-1.53,11.07,11.07,0,0,1-1.72,1.8c-1.12,1.05-2.72,2.44-4.58,3.87s-3.63,2.6-4.94,3.4A11.21,11.21,0,0,1,388.81,409.63Z" style="fill:#fafafa"></path><path d="M391.8,388a77.9,77.9,0,0,1-8-4.19,81.52,81.52,0,0,1-7.79-4.64,77.9,77.9,0,0,1,8,4.19A81.52,81.52,0,0,1,391.8,388Z" style="fill:#fafafa"></path><path d="M395.81,372.73a21.82,21.82,0,0,1,3.55-2.93,20.09,20.09,0,0,1,3.85-2.5,20.64,20.64,0,0,1-3.54,2.92A19.76,19.76,0,0,1,395.81,372.73Z" style="fill:#fafafa"></path><path d="M379.35,359.4a7.12,7.12,0,0,1-1.34-1.73,23.33,23.33,0,0,1-2.31-4.79,22.56,22.56,0,0,1-1.17-5.18,7.07,7.07,0,0,1,0-2.2,53.44,53.44,0,0,0,1.69,7.21A55,55,0,0,0,379.35,359.4Z" style="fill:#fafafa"></path><path d="M391.79,316.36a59.09,59.09,0,0,1-9.44,5.82,30.7,30.7,0,0,1,4.59-3.13A28.94,28.94,0,0,1,391.79,316.36Z" style="fill:#fafafa"></path><path d="M423.35,338.08a53.83,53.83,0,0,1,3.46-9.87,26.42,26.42,0,0,1-1.48,5A26.1,26.1,0,0,1,423.35,338.08Z" style="fill:#fafafa"></path><path d="M171.56,321.43a55.52,55.52,0,0,1-6.78-3.22,55.48,55.48,0,0,1-6.55-3.68,53.49,53.49,0,0,1,6.79,3.22A52.59,52.59,0,0,1,171.56,321.43Z" style="fill:#fafafa"></path><path d="M202.34,315.47a62.75,62.75,0,0,1,4.73-6.57,61.22,61.22,0,0,1,5.15-6.26,65.13,65.13,0,0,1-4.74,6.57A62,62,0,0,1,202.34,315.47Z" style="fill:#fafafa"></path><path d="M160.32,286.27c-.16,0,.24-3.44.07-7.67s-.8-7.61-.64-7.64a8.79,8.79,0,0,1,.57,2.19,39.23,39.23,0,0,1,.6,5.43,38.52,38.52,0,0,1-.19,5.46A8.25,8.25,0,0,1,160.32,286.27Z" style="fill:#fafafa"></path><path d="M143.12,268.05a64.08,64.08,0,0,1-3.22,7.52,64.56,64.56,0,0,1-3.69,7.29,64.38,64.38,0,0,1,3.22-7.51A63.33,63.33,0,0,1,143.12,268.05Z" style="fill:#fafafa"></path><path d="M173.61,251.2a15.53,15.53,0,0,1-1.65-1.85,51.32,51.32,0,0,0-4.12-4.27,53.47,53.47,0,0,0-4.6-3.74,15.32,15.32,0,0,1-2-1.48,9.23,9.23,0,0,1,2.19,1.18,34.21,34.21,0,0,1,4.75,3.66,35.13,35.13,0,0,1,4.06,4.42A9.35,9.35,0,0,1,173.61,251.2Z" style="fill:#fafafa"></path><path d="M209.65,237.4a79.34,79.34,0,0,1-6.74,6.12,79.45,79.45,0,0,1-7.08,5.73,79.34,79.34,0,0,1,6.74-6.12A81.69,81.69,0,0,1,209.65,237.4Z" style="fill:#fafafa"></path><path d="M221.84,280.85a92.27,92.27,0,0,1-1.76-9.58,94.13,94.13,0,0,1-1.24-9.67,89.11,89.11,0,0,1,1.76,9.59A94.14,94.14,0,0,1,221.84,280.85Z" style="fill:#fafafa"></path><path d="M369.49,265.13a38,38,0,0,1-4.61-4.27,38.31,38.31,0,0,1-4.25-4.64,76.6,76.6,0,0,1,8.86,8.91Z" style="fill:#fafafa"></path><path d="M366.09,302c-.12-.1,1.83-2.61,3.77-6s3.17-6.32,3.32-6.26a7.54,7.54,0,0,1-.64,2,36.25,36.25,0,0,1-2.23,4.53,34.75,34.75,0,0,1-2.81,4.18A7.31,7.31,0,0,1,366.09,302Z" style="fill:#fafafa"></path><path d="M353.83,332.16c-.15.06-1.36-2.54-3.43-5.39s-4.14-4.83-4-4.95a5.55,5.55,0,0,1,1.47,1.19,26.45,26.45,0,0,1,5.32,7.38A5.86,5.86,0,0,1,353.83,332.16Z" style="fill:#fafafa"></path><path d="M327.52,287.24a77.28,77.28,0,0,1-.44-8.88,75.31,75.31,0,0,1,.09-8.88,77,77,0,0,1,.44,8.87A75.44,75.44,0,0,1,327.52,287.24Z" style="fill:#fafafa"></path><path d="M323.26,250.66a34.15,34.15,0,0,1-4.91-6.93,17.33,17.33,0,0,1,2.66,3.32A18,18,0,0,1,323.26,250.66Z" style="fill:#fafafa"></path><path d="M342.45,286.9a106.33,106.33,0,0,1,4-9.94c2.37-5.43,4.39-9.79,4.52-9.73s-1.67,4.5-4,9.94S342.58,287,342.45,286.9Z" style="fill:#fafafa"></path><path d="M343.27,247.26a34.28,34.28,0,0,1-2.22-5.61,36.25,36.25,0,0,1-1.72-5.78,35.24,35.24,0,0,1,2.22,5.61A36.58,36.58,0,0,1,343.27,247.26Z" style="fill:#fafafa"></path><path d="M317.44,319.49a68.15,68.15,0,0,1-3.39-7.76,70.63,70.63,0,0,1-2.9-8,68.15,68.15,0,0,1,3.39,7.76A71.44,71.44,0,0,1,317.44,319.49Z" style="fill:#fafafa"></path><path d="M237.55,329.41a84.93,84.93,0,0,1-6.46-6.91,88.69,88.69,0,0,1-6.06-7.26,84.93,84.93,0,0,1,6.46,6.91A88.69,88.69,0,0,1,237.55,329.41Z" style="fill:#fafafa"></path><path d="M284.92,300.87a22.37,22.37,0,0,1-2.43,2.07c-1.52,1.23-3.62,2.95-5.89,4.89s-4.29,3.75-5.75,5.07a21.65,21.65,0,0,1-2.42,2.07,17.72,17.72,0,0,1,2.17-2.34c1.39-1.39,3.38-3.24,5.66-5.2s4.42-3.62,6-4.78A16.86,16.86,0,0,1,284.92,300.87Z" style="fill:#fafafa"></path><path d="M265.12,275.15a67.92,67.92,0,0,1-6.61-5.14,69,69,0,0,1-6.28-5.55,67.92,67.92,0,0,1,6.61,5.14A69,69,0,0,1,265.12,275.15Z" style="fill:#fafafa"></path><path d="M292.25,248.82c.14,0,.71,5.08,1.27,11.37s.89,11.4.75,11.41-.71-5.08-1.27-11.37S292.1,248.84,292.25,248.82Z" style="fill:#fafafa"></path><path d="M274.94,239.7c0,.14-5.17.53-11.57.87s-11.59.49-11.6.35,5.17-.54,11.57-.87S274.93,239.56,274.94,239.7Z" style="fill:#fafafa"></path><path d="M170.19,395.23c-.13-.09,1.78-2.92,3.65-6.68s3-7,3.16-6.93a8.89,8.89,0,0,1-.58,2.17,42.29,42.29,0,0,1-2.12,5,40.57,40.57,0,0,1-2.72,4.68A7.94,7.94,0,0,1,170.19,395.23Z" style="fill:#fafafa"></path><path d="M266,398.88a81.79,81.79,0,0,1-7-6.09,81.78,81.78,0,0,1-6.64-6.48,82.75,82.75,0,0,1,7,6.09A80.57,80.57,0,0,1,266,398.88Z" style="fill:#fafafa"></path><path d="M286.36,436.49a94.43,94.43,0,0,1-7.93,5.76,93.89,93.89,0,0,1-8.23,5.34,92.36,92.36,0,0,1,7.94-5.77A93,93,0,0,1,286.36,436.49Z" style="fill:#fafafa"></path><path d="M289.09,394.73a22,22,0,0,1,1.39-2.84c.9-1.73,2.13-4.13,3.41-6.81s2.37-5.14,3.16-6.92a21.09,21.09,0,0,1,1.33-2.86,16.93,16.93,0,0,1-1,3c-.7,1.82-1.75,4.32-3,7s-2.57,5.07-3.56,6.76A16.84,16.84,0,0,1,289.09,394.73Z" style="fill:#fafafa"></path><path d="M189,358.65c-.06.13-4.46-1.45-9.84-3.53s-9.71-3.89-9.65-4a102,102,0,0,1,9.84,3.53C184.75,356.72,189.07,358.51,189,358.65Z" style="fill:#fafafa"></path><path d="M235.68,347.64a102.54,102.54,0,0,1-9.06,5.16c-5.08,2.73-9.24,4.83-9.31,4.71a104,104,0,0,1,9.06-5.17A103.43,103.43,0,0,1,235.68,347.64Z" style="fill:#fafafa"></path><path d="M278,357.66c-.06.12-4.58-2-10.08-4.71s-9.91-5.05-9.85-5.18,4.58,2,10.08,4.71S278.07,357.53,278,357.66Z" style="fill:#fafafa"></path><path d="M328.85,348.6a16.89,16.89,0,0,1-2.66,1c-1.65.56-3.92,1.37-6.37,2.39s-4.63,2.06-6.19,2.84a18,18,0,0,1-2.55,1.21,12.62,12.62,0,0,1,2.38-1.54,57.94,57.94,0,0,1,6.16-3,58.79,58.79,0,0,1,6.46-2.25A13.37,13.37,0,0,1,328.85,348.6Z" style="fill:#fafafa"></path></g><g id="freepik--Character--inject-16"><path d="M262.56,107.45l-1.9-24.58c-2.6-2.11-5.7-7.92-5.18-13.73s-6.82-40.42,5.18-41.21S274,43.25,274.51,53.82,282.57,105,282.57,105Z" style="fill:#FA926F"></path><g style="opacity:0.4"><path d="M262.56,107.45l-1.9-24.58c-2.6-2.11-5.7-7.92-5.18-13.73s-6.82-40.42,5.18-41.21S274,43.25,274.51,53.82,282.57,105,282.57,105Z" style="fill:#fff"></path></g><path d="M259.14,72.07a12.89,12.89,0,0,1,.48,2.49c.24,1.54.53,3.67.81,6s.52,4.48.66,6a12.19,12.19,0,0,1,.12,2.51,11.53,11.53,0,0,1-.49-2.47c-.23-1.54-.52-3.67-.81-6s-.51-4.49-.65-6A11.36,11.36,0,0,1,259.14,72.07Z" style="fill:#FA926F"></path><path d="M269.83,33.57a7.15,7.15,0,0,1-2.07,1.17,18.23,18.23,0,0,1-11.32,1,6.85,6.85,0,0,1-2.25-.79,23.18,23.18,0,0,0,15.64-1.39Z" style="fill:#FA926F"></path><path d="M273.43,44.06a16.66,16.66,0,0,1-2.85.16c-1.76.05-4.18.11-6.86.24s-5.1.3-6.85.42A18.39,18.39,0,0,1,254,45a13.7,13.7,0,0,1,2.82-.48c1.75-.22,4.17-.45,6.86-.58s5.12-.14,6.88-.09A14.42,14.42,0,0,1,273.43,44.06Z" style="fill:#fafafa"></path><path d="M274.47,50.41a18.76,18.76,0,0,1-3,.29l-7.29.44-7.29.49a17.44,17.44,0,0,1-3,.1,17.16,17.16,0,0,1,3-.47c1.86-.21,4.43-.45,7.29-.64s5.43-.27,7.31-.29A16.18,16.18,0,0,1,274.47,50.41Z" style="fill:#fafafa"></path><path d="M274.81,57.64a95.82,95.82,0,0,1-10,.87,98.78,98.78,0,0,1-10,.34,94.36,94.36,0,0,1,10-.86A97.2,97.2,0,0,1,274.81,57.64Z" style="fill:#fafafa"></path><path d="M275.15,64.52a16.12,16.12,0,0,1-2.84.43c-1.76.22-4.18.51-6.86.87s-5.09.74-6.83,1a17.28,17.28,0,0,1-2.85.35,14,14,0,0,1,2.78-.71c1.74-.36,4.15-.79,6.83-1.15s5.13-.6,6.89-.72A14.87,14.87,0,0,1,275.15,64.52Z" style="fill:#fafafa"></path><path d="M259.56,76.45c0,.14-1.07.32-2.21-.34s-1.54-1.71-1.4-1.75.66.74,1.66,1.3S259.56,76.3,259.56,76.45Z" style="fill:#fafafa"></path><path d="M276.58,72.56a65.25,65.25,0,0,1-8.36,1.07,69.74,69.74,0,0,1-8.41.56,69.07,69.07,0,0,1,8.36-1.07A69.64,69.64,0,0,1,276.58,72.56Z" style="fill:#fafafa"></path><path d="M278.69,82.84a80.76,80.76,0,0,1-9,1,76,76,0,0,1-9,.48,79.47,79.47,0,0,1,9-1A74.87,74.87,0,0,1,278.69,82.84Z" style="fill:#fafafa"></path><path d="M279.87,90a13,13,0,0,1-2.69.63c-1.68.31-4,.69-6.6,1s-4.95.4-6.65.46a14,14,0,0,1-2.77,0,14.16,14.16,0,0,1,2.75-.33c1.69-.15,4-.33,6.62-.61s4.9-.6,6.59-.81A16.13,16.13,0,0,1,279.87,90Z" style="fill:#fafafa"></path><path d="M272.3,37.18a10.8,10.8,0,0,1-2.58.86,33.83,33.83,0,0,1-6.51.94,33.25,33.25,0,0,1-6.56-.36A11.1,11.1,0,0,1,254,38a19.1,19.1,0,0,1,2.7.26,45.38,45.38,0,0,0,6.49.2,45.3,45.3,0,0,0,6.45-.78A20.5,20.5,0,0,1,272.3,37.18Z" style="fill:#fafafa"></path><path d="M269.82,257.37l-6.09-80.07L261,96.07l21-1.32s9.62,54.3,12.5,83.11c0,0,24.93,79.48,22.63,96.19S305,305.77,305,305.77L227.45,296a22,22,0,0,1-.83-6.49c.1-20.42-1.48-78.91,0-86.9,4.44-23.82,22.11-19.75,28.28-13.73S269.82,257.37,269.82,257.37Z" style="fill:#263238"></path><path d="M267.71,182.73a2.74,2.74,0,0,1-.3-.83,23.89,23.89,0,0,1-.53-2.35,34.69,34.69,0,0,1-.49-7.9,34.19,34.19,0,0,1,1.32-7.82,23.54,23.54,0,0,1,.78-2.27,2.94,2.94,0,0,1,.38-.8c.08,0-.32,1.22-.8,3.17a41.27,41.27,0,0,0-1.16,7.74,42.78,42.78,0,0,0,.33,7.83C267.52,181.49,267.79,182.71,267.71,182.73Z" style="fill:#455a64"></path><path d="M287.55,178.83c-.1,0,.33-1.38.68-3.64a29.4,29.4,0,0,0,.31-4,28.71,28.71,0,0,0-1.52-9.61,28.69,28.69,0,0,0-1.53-3.69c-1-2-1.85-3.19-1.77-3.25a4.18,4.18,0,0,1,.64.77,18.68,18.68,0,0,1,1.45,2.31,24.66,24.66,0,0,1,1.66,3.7,27.56,27.56,0,0,1,1.23,4.82,28.78,28.78,0,0,1,.32,4.95,24.91,24.91,0,0,1-.43,4,20.53,20.53,0,0,1-.67,2.64A4.16,4.16,0,0,1,287.55,178.83Z" style="fill:#455a64"></path><path d="M262.57,266a3.33,3.33,0,0,1-.78.6c-.52.36-1.29.86-2.25,1.45-1.92,1.19-4.64,2.74-7.72,4.28s-6,2.77-8.06,3.59c-1,.41-1.91.72-2.51.92a3.3,3.3,0,0,1-.95.26,30.36,30.36,0,0,1,3.32-1.52c2.06-.91,4.89-2.19,8-3.72s5.8-3,7.76-4.13A32.36,32.36,0,0,1,262.57,266Z" style="fill:#455a64"></path><path d="M210,327.18c-1.07,0-53.44,6.43-59.83,7.61s-12.28,10.13-9.79,16.38c3.16,7.91,20.17,43.17,20.17,43.17l14.47-7-12-33.18,51.93-1.35V329.29" style="fill:#ffbe9d"></path><path d="M163.53,355.19c-.09,0-.27-1.15-1-2.87a15.22,15.22,0,0,0-4.31-5.75,15.38,15.38,0,0,0-6.51-3.07c-1.83-.37-3-.32-3-.41a2.4,2.4,0,0,1,.82-.1,12.68,12.68,0,0,1,2.26.15,14.17,14.17,0,0,1,11.09,9.05,11.66,11.66,0,0,1,.6,2.17A2.38,2.38,0,0,1,163.53,355.19Z" style="fill:#eb996e"></path><path d="M303.23,325.65l25-34.17-4.72-54,11.84,0s16.49,52.54,14.44,59.28-28.32,44.65-28.32,44.65Z" style="fill:#ffbe9d"></path><path d="M329.23,263.4c4.87-4.31,6.82-6,10.08-11.57l-1.82-10.92.61-8.49c.45-3.39.67-8.21-2.88-9.62-.38-1.25-2.2-5.21-4.46-4.5a67,67,0,0,1,1-9.54c.89-4.09.55-4.94-1.39-4.55s-5.12,14.11-5.12,14.11c-.23.87-3.15-16.41-6.65-11.76-.8,1.07,1.91,14.5,2.64,17.74-3.19,7.75-4,8.83,1.19,15.68C323.12,242.28,328.45,260.64,329.23,263.4Z" style="fill:#ffbe9d"></path><path d="M343.56,293.2c-.08,0-.57-.91-1.7-2.16a9.27,9.27,0,0,0-5.59-3.07,9.52,9.52,0,0,0-3.54.27,7.57,7.57,0,0,0-2.59,1.31,22.6,22.6,0,0,0-1.94,1.93s.09-.26.35-.67a7.57,7.57,0,0,1,4-3,9.36,9.36,0,0,1,3.74-.32,8.2,8.2,0,0,1,3.53,1.29,10.58,10.58,0,0,1,2.28,2.05,10.84,10.84,0,0,1,1.14,1.7A2.12,2.12,0,0,1,343.56,293.2Z" style="fill:#eb996e"></path><path d="M321.32,231.41a24.23,24.23,0,0,1,0-7.08,24.23,24.23,0,0,1,0,7.08Z" style="fill:#eb996e"></path><path d="M330.39,221.5c-.14,0-.17-.77-.05-1.68s.36-1.65.53-1.6a3.9,3.9,0,0,1,0,1.67C330.74,220.79,330.54,221.52,330.39,221.5Z" style="fill:#eb996e"></path><path d="M334.9,227.3a9.89,9.89,0,0,1,.32-4.5,9.89,9.89,0,0,1-.32,4.5Z" style="fill:#eb996e"></path><path d="M241.43,362.47l-23.81-2.89s-13.93-4.13-15.41-7.32c-2.89-6.24.4-22.45,4.47-24.74l19.08-5.09s5.71-13.05,14.61-14.07,38.23-3,42.19-1.09c8,3.77,18.26,16.69,18.26,16.69s6.51-3.06,10.71-2.51c6.35.83,14,10.05,13.86,14.54-.19,5.06-11.06,22.07-13.86,23.09s-18.5,2.79-18.5,2.79l-18.76,3.61Z" style="fill:#FA926F"></path><g style="opacity:0.30000000000000004"><path d="M221,360c3.43-1.88,7.5-2,11.39-1.65a105.19,105.19,0,0,1,11.53,2.1,89.89,89.89,0,0,0,33.86.14c3.7-.7,8.92-.15,12.08,1.89l-16,3-35.52-3.38Z"></path></g><path d="M231.24,314.85s-5.8-14.58-5-20.72c.29-2.2,2.77-5.22,4.7-6.41,4.45-2.72,12.56-4.17,16.82-4,13.52.57,46.78,3.72,52.72,5.58,9.43,3,10.44,5.39,10.44,5.39s-6.16,20.07-10.87,30l-1.75,2.51-47.38-14.87Z" style="fill:#FA926F"></path><path d="M300,323.61a4.66,4.66,0,0,1-.57-.69l-1.56-2a66.77,66.77,0,0,0-6.1-7.12,31,31,0,0,0-5-4.06,22.6,22.6,0,0,0-6.72-3,17.24,17.24,0,0,0-8.06-.12c-2.78.56-5.58,1.58-8.6,2.1a17.8,17.8,0,0,1-4.54.22,39.51,39.51,0,0,1-4.33-.69c-1.41-.28-2.78-.55-4.13-.71a22.31,22.31,0,0,0-4-.11,23.16,23.16,0,0,0-12.77,4.76,23.83,23.83,0,0,0-6.1,7c-.56,1-.91,1.74-1.16,2.27a4.66,4.66,0,0,1-.38.81,6.7,6.7,0,0,1,.28-.85,22.32,22.32,0,0,1,1.08-2.33A23.39,23.39,0,0,1,250.46,307c1.39.16,2.77.44,4.17.71a38.11,38.11,0,0,0,4.28.67,17.23,17.23,0,0,0,4.41-.21c3-.51,5.76-1.53,8.59-2.09a17.76,17.76,0,0,1,8.28.15,22.89,22.89,0,0,1,6.84,3.09,29.78,29.78,0,0,1,5,4.16,61.07,61.07,0,0,1,6,7.26c.65.9,1.14,1.61,1.47,2.09A7.43,7.43,0,0,1,300,323.61Z" style="fill:#263238"></path><path d="M224.08,355.11c-.08,0,.3-1.38.75-3.6a56.19,56.19,0,0,0,1.09-8.77,56.93,56.93,0,0,0-.32-8.83c-.26-2.25-.52-3.64-.44-3.65a3.24,3.24,0,0,1,.29.95c.16.62.34,1.52.52,2.65a46.56,46.56,0,0,1,.47,8.9,45.7,45.7,0,0,1-1.25,8.83c-.27,1.11-.53,2-.74,2.6A4.19,4.19,0,0,1,224.08,355.11Z" style="fill:#263238"></path><path d="M303.23,356.87a4.36,4.36,0,0,1-.67-.69,20.58,20.58,0,0,1-1.59-2.11,27.88,27.88,0,0,1-4.62-16.57,18.78,18.78,0,0,1,.27-2.63,3.29,3.29,0,0,1,.22-.94c.09,0-.11,1.37-.12,3.58a30.8,30.8,0,0,0,4.56,16.36C302.43,355.75,303.31,356.81,303.23,356.87Z" style="fill:#263238"></path><path d="M301.52,323.82a13.94,13.94,0,0,1-1.72,3.44,14.49,14.49,0,0,1-2.18,3.19,28.79,28.79,0,0,1,3.9-6.63Z" style="fill:#263238"></path><path d="M296,304.51a11.74,11.74,0,0,1-1.72-.41c-.54-.15-1.21-.33-2-.5s-1.67-.41-2.66-.6c-2-.42-4.36-.81-7-1.13a76.18,76.18,0,0,0-17.34,0c-2.66.32-5,.7-7,1.12-1,.18-1.88.42-2.67.59s-1.45.35-2,.5a12,12,0,0,1-1.72.4,12.39,12.39,0,0,1,1.67-.59c.53-.18,1.2-.39,2-.59s1.66-.46,2.66-.67a68.46,68.46,0,0,1,7-1.23,70.84,70.84,0,0,1,17.46,0,70.83,70.83,0,0,1,7,1.25c1,.21,1.87.47,2.65.68s1.45.41,2,.59A10.14,10.14,0,0,1,296,304.51Z" style="fill:#263238"></path><path d="M299.11,303.08a2.88,2.88,0,0,1-.63-.2l-1.78-.69c-.76-.31-1.7-.68-2.82-1s-2.36-.85-3.79-1.24l-2.22-.65c-.77-.23-1.6-.4-2.44-.61-1.67-.45-3.5-.76-5.42-1.14a85.92,85.92,0,0,0-25.28-.65c-1.93.28-3.77.5-5.47.86-.85.17-1.68.3-2.46.49l-2.25.53c-1.45.32-2.72.73-3.85,1.05s-2.09.62-2.87.89l-1.81.6a3,3,0,0,1-.64.17,2.71,2.71,0,0,1,.6-.27l1.78-.69c.77-.3,1.73-.65,2.86-1s2.39-.79,3.84-1.12l2.25-.58c.79-.19,1.62-.33,2.47-.51,1.71-.38,3.55-.62,5.5-.91a89.91,89.91,0,0,1,12.73-.66A91.18,91.18,0,0,1,280.1,297c1.92.39,3.76.72,5.44,1.19.84.22,1.66.41,2.44.64l2.22.69c1.43.41,2.67.91,3.78,1.31s2,.79,2.8,1.13l1.74.78A3.2,3.2,0,0,1,299.11,303.08Z" style="fill:#263238"></path><path d="M302.22,303.07a4.06,4.06,0,0,1-.61-.33l-1.69-1c-.72-.47-1.62-1-2.7-1.6s-2.25-1.31-3.64-2l-2.16-1.08c-.75-.38-1.56-.7-2.39-1.08-1.63-.76-3.45-1.42-5.34-2.16A96.78,96.78,0,0,0,271,290.24a95.52,95.52,0,0,0-13.1-1.61c-2-.06-4-.15-5.77-.07-.9,0-1.78,0-2.61.07l-2.41.16c-1.54.07-2.91.28-4.13.41s-2.25.29-3.1.44l-2,.3a2.76,2.76,0,0,1-.69.07,5.12,5.12,0,0,1,.67-.17l1.94-.4c.85-.18,1.89-.38,3.1-.52s2.6-.4,4.14-.49l2.41-.2c.84-.07,1.72-.07,2.63-.1,1.81-.1,3.75,0,5.8,0a84.3,84.3,0,0,1,26,5.21c1.9.75,3.72,1.43,5.36,2.22.82.38,1.63.72,2.38,1.1l2.16,1.12c1.38.68,2.56,1.43,3.62,2.05s1.95,1.19,2.66,1.68l1.64,1.12A3.07,3.07,0,0,1,302.22,303.07Z" style="fill:#263238"></path><g style="opacity:0.30000000000000004"><path d="M239.77,299.93a2,2,0,0,1,.07-2.71,5,5,0,0,1,2.61-1c8.14-1.37,16.34-2.71,24.6-2.58s16.64,1.8,23.7,6.09a85.58,85.58,0,0,0-51,.14"></path></g><g style="opacity:0.30000000000000004"><path d="M233.23,312.81A15.79,15.79,0,0,1,245,305.63c4.88-.43,9.76,1.45,14.64,1,3.31-.32,6.43-1.71,9.71-2.34a21.65,21.65,0,0,1,21,8.24c-2.47-1.7-4.54-3.78-7.28-5a18.91,18.91,0,0,0-9.41-1.32c-4.21.54-8.23,2.35-12.47,2.46-3.91.1-7.06-1-10.94-1.49-6.08-.78-11.91,2.39-17.22,5.45"></path></g><path d="M269.71,326c-7.71-2.75-16.18-.87-23,3.42a23.78,23.78,0,0,0-9.58,10.35c-3.28,7.46.66,20.48,6.7,25.84l30.51,1.06c5.16-5.72,10-12.78,9.85-21C284,336.73,277.42,328.71,269.71,326Z" style="fill:#ffbe9d"></path><path d="M232.63,394.77c-3.37,14.26.38,30.41,9.45,36-5.85,3-7.05,7.82-6.21,13.39s3.71,11,.86,15.9c-2,3.49-6,5.3-8.85,8.2s-5.16,9.78-1.62,11.74c0,.58,38.35-.11,56.06.45,7.44.24,15.95-.45,15.95-.45,2.32-5.52.74-16.17,2-22,1-4.46,4.36-7.91,7.15-11.53s5.15-8.29,3.64-12.6c-2.37-6.76-12.58-8.19-14.74-15-1.74-5.53,2.91-11.35,1.95-17.08-1.43-8.58-13.52-10.78-17.56-18.48-2.2-4.2-1.61-9.34-3.23-13.79s-7.87-7.93-10.91-4.29" style="fill:#263238"></path><path d="M276.85,480.25a5,5,0,0,1-1.09-.52,7.84,7.84,0,0,1-2.48-2.42,7.42,7.42,0,0,1-1.19-5.3,8,8,0,0,1,4.16-5.81c2.46-1.33,5.55-1.29,8.52-2.13a8.31,8.31,0,0,0,4-2.51,4.08,4.08,0,0,0,.9-2.21,4.74,4.74,0,0,0-.59-2.4c-.38-.78-.89-1.51-1.36-2.31a6.41,6.41,0,0,1-1-2.65,4.12,4.12,0,0,1,.76-2.82,11.61,11.61,0,0,1,2-2.12,16.21,16.21,0,0,0,3.89-4.28,11.86,11.86,0,0,0,1.75-5.61,10.42,10.42,0,0,0-1.42-5.67,9.84,9.84,0,0,0-4.19-3.82c-1.67-.89-3.54-1.75-4.61-3.43a3.92,3.92,0,0,1-.63-2.8,6.87,6.87,0,0,1,1.09-2.55c.48-.77,1-1.46,1.47-2.18a14.92,14.92,0,0,0,1.18-2.23,16.15,16.15,0,0,0,1.25-4.65,16.49,16.49,0,0,0-1.21-8.49,16.73,16.73,0,0,0-4.21-5.74,18.16,18.16,0,0,0-4.54-3,20.1,20.1,0,0,0-3.26-1.12l-.87-.19a1.1,1.1,0,0,1-.3-.08l.31,0c.2,0,.5.06.89.14a16.78,16.78,0,0,1,3.31,1,17.64,17.64,0,0,1,4.65,2.91,16.38,16.38,0,0,1,5.66,14.5,16.35,16.35,0,0,1-1.26,4.78,15.75,15.75,0,0,1-1.2,2.3c-.46.75-1,1.44-1.46,2.18a6.35,6.35,0,0,0-1,2.37,3.43,3.43,0,0,0,.56,2.46c1,1.52,2.72,2.36,4.43,3.25a10.28,10.28,0,0,1,4.39,4,10.87,10.87,0,0,1,1.5,5.95,12.45,12.45,0,0,1-1.82,5.86,16.71,16.71,0,0,1-4,4.39,11.48,11.48,0,0,0-1.93,2,3.65,3.65,0,0,0-.69,2.49,6.3,6.3,0,0,0,.95,2.46c.45.77,1,1.52,1.37,2.34a5,5,0,0,1,.62,2.64,4.46,4.46,0,0,1-1,2.46,8.67,8.67,0,0,1-4.2,2.64,40.39,40.39,0,0,1-4.51.86,13.93,13.93,0,0,0-4,1.18,7.77,7.77,0,0,0-4,5.53,7.28,7.28,0,0,0,1.07,5.15,8.1,8.1,0,0,0,2.37,2.44C276.48,480.07,276.87,480.22,276.85,480.25Z" style="fill:#455a64"></path><path d="M233,407.18a18.79,18.79,0,0,0,5,16.47,24.65,24.65,0,0,0,11.77,6.23c5.87,1.43,12.27,1.33,17.71-1.3s9.69-8,10-14.06c.14-2.74-.49-5.55.25-8.19.32-1.15.9-2.34.52-3.47a2.86,2.86,0,0,0-2.55-1.74,6.32,6.32,0,0,0-3.13.8c-3.34,1.63-6,4.29-8.67,6.91" style="fill:#263238"></path><path d="M232.71,404.28c1,8.47,7.15,18.59,15.57,17.25l26.06-8.06a5,5,0,0,0,4.19-5.28l-6.16-63.56h0l-7-7.48c-6.46-6.93-18.1-5.11-21.75,3.63a6.51,6.51,0,0,0-.48,1.56h0c0,.53-.14.88-.13,1.32a41.62,41.62,0,0,0,.34,8.76h0c.21,5.14.32,7.25.31,7.2s-10.75,2.37-12.26,16.64C230.66,383.36,231.62,394.88,232.71,404.28Z" style="fill:#ffbe9d"></path><path d="M236.38,395A1.83,1.83,0,0,1,238,393a1.74,1.74,0,0,1,2,1.54,1.82,1.82,0,0,1-1.66,1.92A1.74,1.74,0,0,1,236.38,395Z" style="fill:#263238"></path><path d="M234.9,398.15c.21-.25,1.64.7,3.59.59s3.34-1.16,3.56-.93-.1.54-.7,1a4.94,4.94,0,0,1-2.83,1,4.72,4.72,0,0,1-2.87-.76C235,398.68,234.79,398.26,234.9,398.15Z" style="fill:#263238"></path><path d="M253.76,392.35c.22-.25,1.65.7,3.6.59s3.33-1.16,3.56-.93-.1.54-.7,1a5,5,0,0,1-2.83,1,4.76,4.76,0,0,1-2.88-.76C253.89,392.88,253.66,392.46,253.76,392.35Z" style="fill:#263238"></path><path d="M246.23,382.67a12.94,12.94,0,0,1-3.14.73c-.5.08-1,.21-1,.55a2.54,2.54,0,0,0,.41,1.46l1.67,3.72c2.34,5.3,4.05,9.67,3.84,9.76s-2.28-4.13-4.61-9.43l-1.61-3.74a2.94,2.94,0,0,1-.37-2,1.26,1.26,0,0,1,.79-.77,3.62,3.62,0,0,1,.84-.16A12.63,12.63,0,0,1,246.23,382.67Z" style="fill:#263238"></path><path d="M243.67,359.62a36.06,36.06,0,0,1,19.22,4.07s-5.28-9.55-19.37-7.48Z" style="fill:#eb996e"></path><path d="M254.06,402.7c.17-.54,2.13-.39,4.41-.79s4.09-1.11,4.42-.65c.15.22-.15.73-.87,1.29a7.81,7.81,0,0,1-6.72,1.1C254.44,403.35,254,403,254.06,402.7Z" style="fill:#263238"></path><path d="M235.91,406.66c.32-.46,1.69-.07,3.31-.13s3-.46,3.32,0c.15.22,0,.67-.62,1.12a4.56,4.56,0,0,1-2.65.87,4.65,4.65,0,0,1-2.69-.75C236,407.33,235.77,406.89,235.91,406.66Z" style="fill:#263238"></path><path d="M273.28,384.69c.06,1.05,1.4,3.47,2.45,3.58,2.81.29,7.8-.2,7.48-7.26-.44-9.65-10-7.22-10-6.94S273.08,381.05,273.28,384.69Z" style="fill:#ffbe9d"></path><path d="M276.28,377.59s.16-.12.44-.27a1.67,1.67,0,0,1,1.26-.08c1,.33,2,1.91,2.09,3.64a5.46,5.46,0,0,1-.36,2.43,1.92,1.92,0,0,1-1.2,1.35.87.87,0,0,1-1-.41c-.14-.27-.09-.46-.14-.48s-.2.17-.1.57a1.08,1.08,0,0,0,.41.59,1.32,1.32,0,0,0,.94.2,2.38,2.38,0,0,0,1.69-1.58,5.83,5.83,0,0,0,.46-2.71c-.16-1.95-1.23-3.72-2.65-4.06a1.78,1.78,0,0,0-1.52.32C276.29,377.36,276.25,377.58,276.28,377.59Z" style="fill:#eb996e"></path><path d="M247,423.27a13.21,13.21,0,0,1,8.22-10.71c2.36-.91,5.25-1.32,6.53-3.5s.24-5.24,1.45-7.52c1.67-3.17,6.85-3.39,8-6.77.52-1.47.07-3.16.61-4.63A4.47,4.47,0,0,1,277,387.7a7.16,7.16,0,0,1,4.51,4,19.5,19.5,0,0,1,1.47,6c.5,4.06.83,8.24-.14,12.22-2,8.34-13,20.47-21.62,20.49" style="fill:#263238"></path><path d="M273.5,349.21c.2,2.46.52,6.4,1,12.17.26,3.37.47,6.42.59,8.63a25.61,25.61,0,0,1,.11,3.59,22.78,22.78,0,0,1-.47-3.56c-.23-2.2-.49-5.25-.75-8.62C273.46,354.69,273.21,349.2,273.5,349.21Z" style="fill:#eb996e"></path><path d="M243.1,346.12a13,13,0,0,1,.16,2.6c0,1.6.06,3.8.28,6.23.14,1.71.27,3.31.35,4.66l0,.23h-.24a4.37,4.37,0,0,0-1.56.4c-.47.19-.86.39-1.19.55a5.69,5.69,0,0,1-1,.51s.29-.33.91-.73a11.12,11.12,0,0,1,1.16-.66,4.79,4.79,0,0,1,1.71-.52l-.22.24c-.13-1.4-.28-3-.43-4.65a47.81,47.81,0,0,1-.13-6.28A12.78,12.78,0,0,1,243.1,346.12Z" style="fill:#eb996e"></path><path d="M253.4,338.22a38.91,38.91,0,0,0-5.89.88c-1.59.42-3,.94-4,1.29a6.56,6.56,0,0,1-1.71.49,6,6,0,0,1,1.57-.83,27.21,27.21,0,0,1,4-1.45,16.3,16.3,0,0,1,4.25-.59A4.88,4.88,0,0,1,253.4,338.22Z" style="fill:#eb996e"></path><path d="M278.77,342.18a14.29,14.29,0,0,1-2-.69c-1.26-.43-3-1-5-1.54a35.3,35.3,0,0,0-5.06-1.05c-1.31-.16-2.12,0-2.14-.12a4.51,4.51,0,0,1,2.17-.24,24.14,24.14,0,0,1,5.16.9C275.87,340.5,278.86,342,278.77,342.18Z" style="fill:#eb996e"></path><path d="M259.34,480.53a3,3,0,0,1-1.2-.31,5.3,5.3,0,0,1-2.47-2.5,8.77,8.77,0,0,1-.45-5.56,20.67,20.67,0,0,1,.91-3.39,11,11,0,0,1,2-3.44,5.56,5.56,0,0,1,3.91-1.9,13.36,13.36,0,0,1,4.6,1,7.85,7.85,0,0,0,4.76.43,3.31,3.31,0,0,0,1.81-1.55,2,2,0,0,0-.13-2.26,10.19,10.19,0,0,0-2.21-1.51,3.7,3.7,0,0,1-1.58-2.47,5.92,5.92,0,0,1,2.13-5.4,23.89,23.89,0,0,1,5.23-3.08,11.13,11.13,0,0,0,4.67-3.73,5.85,5.85,0,0,0,0-5.69,8.27,8.27,0,0,0-4.23-3.85,15,15,0,0,0-5.56-1.15,37.34,37.34,0,0,0-5.53.34,50,50,0,0,1-10.32.49,23,23,0,0,1-8.7-2.28,32,32,0,0,1-6.06-4.31,30.94,30.94,0,0,1-3.85-4.07,13.35,13.35,0,0,1-1.84-3,5.69,5.69,0,0,1-.36-1.18s.13.41.46,1.14a13.91,13.91,0,0,0,1.9,3,31.51,31.51,0,0,0,3.89,4,32.44,32.44,0,0,0,6,4.2,22.62,22.62,0,0,0,8.57,2.18A49.5,49.5,0,0,0,266,434a39.19,39.19,0,0,1,5.59-.36,15.57,15.57,0,0,1,5.76,1.18A8.85,8.85,0,0,1,281.8,439a7.18,7.18,0,0,1,.77,3.07,5.73,5.73,0,0,1-.83,3.12,11.68,11.68,0,0,1-4.89,3.92,23.44,23.44,0,0,0-5.12,3,5.44,5.44,0,0,0-2,4.93,3.25,3.25,0,0,0,1.37,2.16,10.27,10.27,0,0,1,2.3,1.6,2.29,2.29,0,0,1,.52,1.39,2.91,2.91,0,0,1-.35,1.4,3.72,3.72,0,0,1-2.08,1.76,8.15,8.15,0,0,1-5-.45,13,13,0,0,0-4.46-1,5.1,5.1,0,0,0-3.64,1.74,10.64,10.64,0,0,0-1.94,3.3,20,20,0,0,0-.93,3.34,8.63,8.63,0,0,0,.34,5.41,5.26,5.26,0,0,0,2.34,2.49A6.74,6.74,0,0,0,259.34,480.53Z" style="fill:#455a64"></path><path d="M258.6,434.61a12.45,12.45,0,0,1-2.7-.35,13.15,13.15,0,0,1-2.87-.82,8.18,8.18,0,0,1-2.88-2.29,10.86,10.86,0,0,1-2.62-6,7.32,7.32,0,0,1,.11-2,2,2,0,0,1,.22-.71,22.19,22.19,0,0,0,0,2.68,11.26,11.26,0,0,0,2.65,5.74,8,8,0,0,0,2.68,2.19,14.84,14.84,0,0,0,2.75.9A16.56,16.56,0,0,1,258.6,434.61Z" style="fill:#455a64"></path><path d="M272,433.66a3.66,3.66,0,0,1-1.13.16,20.88,20.88,0,0,1-3.1-.05,22.54,22.54,0,0,1-16.95-10.34,20.36,20.36,0,0,1-1.46-2.73,4.1,4.1,0,0,1-.38-1.08c.09,0,.69,1.47,2.15,3.61A23.63,23.63,0,0,0,267.8,433.4C270.37,433.72,272,433.57,272,433.66Z" style="fill:#455a64"></path><path d="M261.58,435.6a1.61,1.61,0,0,1,.53.5,2.38,2.38,0,0,1,.21,2.06,4.86,4.86,0,0,1-2.07,2.58,8.11,8.11,0,0,1-4.27,1,47.05,47.05,0,0,0-5.24-.11,6.27,6.27,0,0,0-2.68.87,3.83,3.83,0,0,0-1.78,2.24,3.61,3.61,0,0,0,.58,2.92,8.91,8.91,0,0,0,2.35,2.31c1.84,1.27,4.26,2.18,5.76,4.34a4.55,4.55,0,0,1,.65,3.68,6.52,6.52,0,0,1-1.91,3.09,9.53,9.53,0,0,1-3,1.86,31.92,31.92,0,0,1-3.12,1.06c-1,.31-2,.61-2.93,1a14.73,14.73,0,0,0-2.55,1.36,12,12,0,0,0-3.57,3.7,9.27,9.27,0,0,0-1.3,4,8.89,8.89,0,0,0,.31,3.2,9.76,9.76,0,0,0,1.2,2.5s-.05,0-.13-.13a4.3,4.3,0,0,1-.34-.43,7.09,7.09,0,0,1-.92-1.88A8.65,8.65,0,0,1,237,474a9.4,9.4,0,0,1,1.27-4.2,12.2,12.2,0,0,1,3.65-3.86,14.53,14.53,0,0,1,2.61-1.43,30.53,30.53,0,0,1,3-1c2-.64,4.22-1.25,5.85-2.83a6.1,6.1,0,0,0,1.77-2.84,4,4,0,0,0-.59-3.27,8.53,8.53,0,0,0-2.6-2.36c-1-.65-2-1.17-3-1.86a9.18,9.18,0,0,1-2.48-2.45,4.1,4.1,0,0,1-.62-3.32,4.22,4.22,0,0,1,2-2.5,6.49,6.49,0,0,1,2.86-.91,44.16,44.16,0,0,1,5.29.17,7.88,7.88,0,0,0,4.12-.86,4.64,4.64,0,0,0,2-2.39,2.26,2.26,0,0,0-.1-1.94A5.72,5.72,0,0,0,261.58,435.6Z" style="fill:#455a64"></path><path d="M246.34,375.13A3.6,3.6,0,1,1,252,379" style="fill:#eb996e"></path><path d="M248.58,372.51c0-.1.17-.29.63-.43a3.56,3.56,0,0,1,2,.07,4.12,4.12,0,0,1,2.42,2,4.49,4.49,0,0,1,.14,3.85,4.23,4.23,0,0,1-1.07,1.52l-.45.41-.49-.32c-3.31-2.23-5.68-4.14-5.47-4.46s2.92,1.05,6.31,3.17l-.94.08a3.08,3.08,0,0,0,.67-1,3.2,3.2,0,0,0-1.53-4.2C249.61,372.54,248.63,372.74,248.58,372.51Z" style="fill:#263238"></path><path d="M300.59,416.55a2,2,0,0,1,.63-.32,4,4,0,0,1,2-.15,4.79,4.79,0,0,1,2.76,1.59,4.53,4.53,0,0,1,.82,4.09,5.38,5.38,0,0,1-3.38,3.76,6.56,6.56,0,0,1-5.77-.78,8,8,0,0,1-3.27-5.57,10.92,10.92,0,0,1,.2-3.46,20.48,20.48,0,0,1,1.09-3.38c.92-2.2,2-4.24,2.72-6.33a9.35,9.35,0,0,0,.32-6.15,10.44,10.44,0,0,0-3.37-4.5c-1.38-1.17-2.8-2.11-4.06-3l-6-4.27-1.61-1.18a5,5,0,0,1-.54-.44,3.23,3.23,0,0,1,.6.35l1.67,1.1L291.5,392c1.27.88,2.71,1.8,4.13,3a10.87,10.87,0,0,1,3.55,4.68,9.86,9.86,0,0,1-.29,6.46c-.73,2.15-1.82,4.2-2.73,6.37a21.63,21.63,0,0,0-1.07,3.28,10.26,10.26,0,0,0-.19,3.3,7.47,7.47,0,0,0,3,5.23,6.09,6.09,0,0,0,5.35.77,5,5,0,0,0,3.18-3.44,4.25,4.25,0,0,0-.7-3.82,4.57,4.57,0,0,0-2.57-1.57,4,4,0,0,0-1.94.05C300.81,416.45,300.61,416.58,300.59,416.55Z" style="fill:#263238"></path><path d="M186.38,389.55c1.77-.22,3.55-.37,5.34-.47a13.58,13.58,0,0,1,3.25.12,4.53,4.53,0,0,1,2.7,1.42,2,2,0,0,1,.06,2.59,4.64,4.64,0,0,1-2,1.1,5.62,5.62,0,0,1-2.07.59,4.45,4.45,0,0,1-1.36-.72c-2.39-1.6-3.5-3-5.89-4.63" style="fill:#ffbe9d"></path><rect x="171.14" y="378.21" width="24.18" height="45.25" rx="5.16" transform="translate(-244.78 295.72) rotate(-51.64)" style="fill:#263238"></rect><path d="M158.85,397s2.14,5.45,2.9,7.1,4.31,3.42,4.31,3.42c1.53,3.81,4.45,3.81,4.45,3.81a2.5,2.5,0,0,0,.61,2.56c1.24,1.19,3.94.39,3.94.39a2,2,0,0,0,.81,2.07c1.65,1,6.14-2.42,7.88-3.84s3.32-2.65,2.28-4.27-5.11.67-5.11.67c.67-.64,1.08-1.33.73-2.13a1.89,1.89,0,0,0-2.05-1,10.75,10.75,0,0,0-2.64.89,28.05,28.05,0,0,0-4.35,2.73s4.08-6.06,4-7.64-2.08-3.55-4.34-1.38h0s2.11-3.32-1.2-3.34a13.46,13.46,0,0,0-1.48.36s-4,1.72-4.54,2.45" style="fill:#ffbe9d"></path><path d="M181.15,408.71a10,10,0,0,1-2.67,3.27,9.73,9.73,0,0,1-3.56,2.29c-.07-.13,1.5-1.14,3.21-2.68S181,408.61,181.15,408.71Z" style="fill:#eb996e"></path><path d="M173.33,408.68c.11.08-.3.91-1.15,1.64s-1.72,1-1.78.91.65-.61,1.44-1.3S173.2,408.6,173.33,408.68Z" style="fill:#eb996e"></path><path d="M172.83,400a39.53,39.53,0,0,0-3.7,3.37,39.2,39.2,0,0,0-2.82,4.14,11.77,11.77,0,0,1,6.52-7.51Z" style="fill:#eb996e"></path><path d="M163.92,401.52c-.14,0-.14-.6.24-1.17s.91-.78,1-.66-.24.48-.55.95S164.06,401.55,163.92,401.52Z" style="fill:#eb996e"></path><rect x="200.98" y="413.9" width="2.77" height="1.78" transform="translate(301.14 -36.04) rotate(38.36)" style="fill:#FA926F"></rect><path d="M232.19,408.45a1.38,1.38,0,0,1,0,.33c0,.24-.07.57-.13,1-.12.88-.29,2.13-.52,3.73s-.44,3.6-.56,5.91a41.11,41.11,0,0,0,.29,7.84,26.37,26.37,0,0,0,2.88,9,18.29,18.29,0,0,0,1.39,2.19c.5.72,1.13,1.35,1.72,2a21,21,0,0,0,4.43,3.36,23.41,23.41,0,0,0,5.45,2.13,25.78,25.78,0,0,0,6.06.74,28.14,28.14,0,0,0,6.29-.74,25.75,25.75,0,0,0,6.07-2.37,28.54,28.54,0,0,0,5.34-3.77,32.14,32.14,0,0,0,4.33-4.65,41,41,0,0,0,5.81-10.5,57.79,57.79,0,0,0,3.41-20.06,126.48,126.48,0,0,0-.72-13.8c-.16-1.6-.29-2.85-.38-3.74,0-.4-.07-.73-.1-1a1.26,1.26,0,0,1,0-.34,1.45,1.45,0,0,1,.06.33c0,.25.09.57.15,1,.13.85.3,2.11.49,3.73a115.08,115.08,0,0,1,.88,13.82,57.72,57.72,0,0,1-3.33,20.23,41.07,41.07,0,0,1-5.86,10.64,31.54,31.54,0,0,1-4.39,4.73,28.67,28.67,0,0,1-5.42,3.84,26.72,26.72,0,0,1-6.2,2.41,28.84,28.84,0,0,1-6.42.75,26.82,26.82,0,0,1-6.18-.77,23.58,23.58,0,0,1-5.57-2.19,21.65,21.65,0,0,1-4.52-3.46,26.31,26.31,0,0,1-1.75-2.1,19.89,19.89,0,0,1-1.41-2.24,26.68,26.68,0,0,1-2.87-9.14,40.47,40.47,0,0,1-.21-7.9c.15-2.33.42-4.31.65-5.93s.46-2.87.62-3.72q.1-.6.18-1A1,1,0,0,1,232.19,408.45Z" style="fill:#FA926F"></path><path d="M203.46,415.64s.14.11.4.35a2.65,2.65,0,0,1,.43.48,3.8,3.8,0,0,1,.51.74c.76,1.16,1.2,3.16,1.7,5.68a11.85,11.85,0,0,0,1.48,3.95,22.7,22.7,0,0,0,3.48,3.66c1.37,1.2,2.94,2.37,4.58,3.64a36.75,36.75,0,0,1,4.9,4.41,17.51,17.51,0,0,1,4.25,14.14,16.72,16.72,0,0,1-3.15,7.8,12,12,0,0,1-3.27,3,8.5,8.5,0,0,1-4.4,1.26,11.26,11.26,0,0,1-8.35-4,12.48,12.48,0,0,1-3.07-9.2,12.22,12.22,0,0,1,4.94-8.72,9.49,9.49,0,0,1,4.92-1.82,6.47,6.47,0,0,1,5,1.66,6.56,6.56,0,0,1,1.85,5,12.66,12.66,0,0,1-1.27,5.08c-1.55,3.13-3.92,5.63-5.32,8.59a11,11,0,0,0-.28,9.25,15.07,15.07,0,0,0,5.78,7,23.93,23.93,0,0,0,8.13,3.27,40.44,40.44,0,0,0,8.28.91,20.71,20.71,0,0,0,7.62-1.25,12.83,12.83,0,0,0,5.64-4.19,17.16,17.16,0,0,0,2.74-5.86,26.72,26.72,0,0,0,.84-5.75,88.39,88.39,0,0,0-.42-9.35c-.19-2.57-.25-4.58-.22-5.94s.13-2.06.13-2.06,0,.18,0,.52,0,.87,0,1.54c0,1.36.09,3.35.32,5.92a86.09,86.09,0,0,1,.5,9.38,26.86,26.86,0,0,1-.81,5.83,17.34,17.34,0,0,1-2.77,6,13.16,13.16,0,0,1-5.79,4.35,21.29,21.29,0,0,1-7.75,1.31,41.29,41.29,0,0,1-8.38-.9,24.31,24.31,0,0,1-8.3-3.32,15.59,15.59,0,0,1-6-7.19,12.23,12.23,0,0,1-.92-4.81,11.39,11.39,0,0,1,1.21-4.84c1.45-3.05,3.82-5.56,5.31-8.59a12.08,12.08,0,0,0,1.22-4.87,6,6,0,0,0-1.69-4.58,6,6,0,0,0-4.63-1.52,9,9,0,0,0-4.65,1.72,11.75,11.75,0,0,0-4.73,8.35,12,12,0,0,0,2.94,8.82,10.8,10.8,0,0,0,8,3.9,8.07,8.07,0,0,0,4.16-1.18,11.48,11.48,0,0,0,3.15-2.9,16.27,16.27,0,0,0,3.08-7.58,17.17,17.17,0,0,0-4.09-13.84,37.61,37.61,0,0,0-4.83-4.39c-1.63-1.28-3.2-2.46-4.57-3.68a22,22,0,0,1-3.49-3.75,11.94,11.94,0,0,1-1.48-4c-.47-2.53-.87-4.51-1.59-5.67A7.94,7.94,0,0,0,203.46,415.64Z" style="fill:#FA926F"></path><path d="M247.56,446.26l3.72,5,4.62-4.45S250.85,447.25,247.56,446.26Z" style="fill:#FA926F"></path><path d="M284.8,384.68a10.78,10.78,0,0,0-2.69-6.16,4.41,4.41,0,0,0-1.93-1.36,2.6,2.6,0,0,0-1.84,0,2.3,2.3,0,0,0-1.47.84,3.07,3.07,0,0,0-.94,2.14,2.7,2.7,0,0,0,1.32,2.53,1.75,1.75,0,0,0,2.42-1L282,386c.27.51.6,1.07,1.16,1.21a1.37,1.37,0,0,0,1.45-.79A3.12,3.12,0,0,0,284.8,384.68Z" style="fill:#FA926F"></path></g><g id="freepik--Plants--inject-16"><path d="M440.43,452.28a2.25,2.25,0,0,1,.19-.46c.15-.33.36-.76.62-1.32a32.93,32.93,0,0,0,1.82-5.28c1.2-4.7,1.62-11.88-.16-20.4a107.39,107.39,0,0,0-3.78-13.7c-1.6-4.86-3.46-10-5-15.6a60.41,60.41,0,0,1-2.46-17.94c.23-6.34,2.11-12.67,4.17-19s4.2-12.48,4.84-18.69a28.52,28.52,0,0,0-3.43-17.26c-2.73-5-6.17-9.34-8.75-13.81a48.11,48.11,0,0,1-5.26-13.27,49.39,49.39,0,0,1-.33-20.56,37.8,37.8,0,0,1,2.15-7.27,3.84,3.84,0,0,1-.13.49c-.11.34-.25.8-.44,1.39-.37,1.22-.86,3.05-1.33,5.43a50.22,50.22,0,0,0,.53,20.41A47.8,47.8,0,0,0,429,308.57c2.57,4.41,6,8.7,8.81,13.79A29,29,0,0,1,441.32,340c-.64,6.31-2.79,12.52-4.84,18.83s-3.92,12.56-4.16,18.8a60.16,60.16,0,0,0,2.4,17.75c1.5,5.55,3.33,10.71,4.92,15.59a108.81,108.81,0,0,1,3.72,13.78c1.73,8.59,1.24,15.84-.05,20.55a30.68,30.68,0,0,1-1.95,5.27l-.68,1.3A2.92,2.92,0,0,1,440.43,452.28Z" style="fill:#263238"></path><path d="M432,313.25s-5.23-16.72,4.15-26.51a.58.58,0,0,1,1,.29C437.65,289.79,438.28,298.2,432,313.25Z" style="fill:#FA926F"></path><path d="M435.14,292.31a15.28,15.28,0,0,1-.35,3.09c-.35,2.12-.75,4.61-1.2,7.37s-.83,5.25-1.17,7.37a15.81,15.81,0,0,1-.55,3.05,13,13,0,0,1,.09-3.1c.18-1.91.51-4.54,1-7.43s1-5.48,1.38-7.35A14.09,14.09,0,0,1,435.14,292.31Z" style="fill:#263238"></path><path d="M438.15,352.67s3.19-17.22,16.06-21.49a.58.58,0,0,1,.74.72C454.11,334.58,450.73,342.3,438.15,352.67Z" style="fill:#FA926F"></path><path d="M450.7,335.63a14.28,14.28,0,0,1-1.75,2.56l-4.5,6-4.48,6a17.67,17.67,0,0,1-1.92,2.44,12.64,12.64,0,0,1,1.54-2.71c1-1.6,2.57-3.77,4.34-6.1s3.42-4.38,4.66-5.85A13.67,13.67,0,0,1,450.7,335.63Z" style="fill:#263238"></path><path d="M434.67,395.87s-1.94-17.41,9.13-25.23a.58.58,0,0,1,.92.47C444.69,373.92,443.7,382.29,434.67,395.87Z" style="fill:#FA926F"></path><path d="M441.74,375.92a15.87,15.87,0,0,1-.94,3l-2.57,7-2.56,7a17.5,17.5,0,0,1-1.12,2.89,12.93,12.93,0,0,1,.68-3c.54-1.85,1.37-4.36,2.38-7.1s2-5.2,2.76-7A13.89,13.89,0,0,1,441.74,375.92Z" style="fill:#263238"></path><path d="M444.36,439.32s-1.32-17.47,10-24.88a.57.57,0,0,1,.9.5C455.16,417.74,453.87,426.07,444.36,439.32Z" style="fill:#FA926F"></path><path d="M452.14,419.63a15.7,15.7,0,0,1-1,2.93c-.81,2-1.77,4.33-2.83,6.91l-2.8,6.92a17.23,17.23,0,0,1-1.23,2.84,13.37,13.37,0,0,1,.79-3c.6-1.82,1.53-4.31,2.64-7s2.19-5.12,3-6.85A14.16,14.16,0,0,1,452.14,419.63Z" style="fill:#263238"></path><path d="M424.5,298.56S409,290.45,408.67,276.9a.58.58,0,0,1,.9-.5C411.88,278,418.27,283.49,424.5,298.56Z" style="fill:#FA926F"></path><path d="M411.89,281.56a14.82,14.82,0,0,1,1.93,2.42c1.27,1.75,2.75,3.79,4.38,6.06l4.39,6a16.9,16.9,0,0,1,1.77,2.55,13.31,13.31,0,0,1-2.13-2.26c-1.23-1.47-2.85-3.57-4.56-5.94s-3.19-4.56-4.23-6.17A14.6,14.6,0,0,1,411.89,281.56Z" style="fill:#263238"></path><path d="M441.17,334.46s-16-7.15-17.12-20.66a.58.58,0,0,1,.87-.55C427.32,314.7,434,319.8,441.17,334.46Z" style="fill:#FA926F"></path><path d="M427.55,318.25a15.71,15.71,0,0,1,2.08,2.31c1.36,1.66,3,3.61,4.73,5.77s3.39,4.1,4.75,5.76a16.59,16.59,0,0,1,1.92,2.43,12.93,12.93,0,0,1-2.26-2.12c-1.32-1.4-3.06-3.39-4.91-5.65s-3.46-4.36-4.6-5.91A13.69,13.69,0,0,1,427.55,318.25Z" style="fill:#263238"></path><path d="M432,374.5s-11-13.65-5.83-26.19a.58.58,0,0,1,1-.09C428.64,350.6,432.3,358.2,432,374.5Z" style="fill:#FA926F"></path><path d="M427.23,353.87a15.09,15.09,0,0,1,.8,3c.45,2.1,1,4.57,1.58,7.3s1.15,5.19,1.61,7.29a17.36,17.36,0,0,1,.6,3,13.16,13.16,0,0,1-1.05-2.93c-.54-1.84-1.18-4.41-1.8-7.26s-1.09-5.46-1.4-7.35A13.94,13.94,0,0,1,427.23,353.87Z" style="fill:#263238"></path><path d="M442.84,421.62S427,414.2,426.07,400.68a.58.58,0,0,1,.89-.54C429.33,401.63,436,406.84,442.84,421.62Z" style="fill:#FA926F"></path><path d="M429.5,405.19a15.2,15.2,0,0,1,2,2.34l4.64,5.85,4.65,5.84a17.2,17.2,0,0,1,1.88,2.46,12.71,12.71,0,0,1-2.23-2.16c-1.3-1.42-3-3.44-4.82-5.73s-3.39-4.42-4.49-6A14.26,14.26,0,0,1,429.5,405.19Z" style="fill:#263238"></path><path d="M474.44,352.76s0,.13,0,.39,0,.67,0,1.12c0,1.05-.11,2.47-.19,4.24-.2,3.74-.48,8.94-.83,15.17h0v0c-1.13,6.34-4.36,13.37-8.7,20.19-3.18,5-6.51,9.59-9.38,13.83a97,97,0,0,0-7,11.64,49.34,49.34,0,0,0-3.3,8.54c-.28,1-.48,1.86-.61,2.42a4.29,4.29,0,0,1-.23.84,5.65,5.65,0,0,1,.1-.87c.08-.56.25-1.39.5-2.46a44.86,44.86,0,0,1,3.12-8.67,92.54,92.54,0,0,1,6.95-11.77c2.86-4.28,6.18-8.86,9.34-13.85,4.31-6.79,7.52-13.71,8.7-19.94v0c.44-6.22.81-11.42,1.07-15.15.14-1.77.26-3.18.34-4.23.05-.45.08-.81.11-1.12A1.49,1.49,0,0,1,474.44,352.76Z" style="fill:#263238"></path><path d="M465,392.59s6.72-16.17-1.73-26.77a.58.58,0,0,0-1,.2C461.5,368.72,460.11,377,465,392.59Z" style="fill:#FA926F"></path><path d="M463.77,371.46a13.53,13.53,0,0,1,.53,3.06c.24,1.9.51,4.53.72,7.45s.3,5.56.3,7.48a12.27,12.27,0,0,1-.19,3.1,17.31,17.31,0,0,1-.27-3.09c-.14-2.14-.31-4.66-.5-7.44s-.37-5.31-.52-7.45A15.27,15.27,0,0,1,463.77,371.46Z" style="fill:#263238"></path><g style="opacity:0.30000000000000004"><path d="M465,392.59s6.72-16.17-1.73-26.77a.58.58,0,0,0-1,.2C461.5,368.72,460.11,377,465,392.59Z"></path></g><path d="M444.18,431.57s5.39-16.67-3.9-26.54a.57.57,0,0,0-1,.27C438.76,408.06,438.06,416.46,444.18,431.57Z" style="fill:#FA926F"></path><path d="M441.25,410.61a13.67,13.67,0,0,1,.78,3c.39,1.88.87,4.48,1.31,7.37s.76,5.52.92,7.43a13.1,13.1,0,0,1,.06,3.1,16,16,0,0,1-.53-3.05c-.31-2.13-.68-4.63-1.1-7.38s-.79-5.26-1.12-7.39A15.4,15.4,0,0,1,441.25,410.61Z" style="fill:#263238"></path><g style="opacity:0.30000000000000004"><path d="M444.18,431.57s5.39-16.67-3.9-26.54a.57.57,0,0,0-1,.27C438.76,408.06,438.06,416.46,444.18,431.57Z"></path></g><path d="M473.55,372.83s14.35-10.05,12.9-23.52a.58.58,0,0,0-1-.38C483.41,350.81,477.78,357.08,473.55,372.83Z" style="fill:#FA926F"></path><g style="opacity:0.30000000000000004"><path d="M473.55,372.83s14.35-10.05,12.9-23.52a.58.58,0,0,0-1-.38C483.41,350.81,477.78,357.08,473.55,372.83Z"></path></g><path d="M483.85,354.34a13.16,13.16,0,0,1-1.19,2.87c-.82,1.73-2,4.09-3.39,6.66s-2.73,4.86-3.76,6.48a13.16,13.16,0,0,1-1.82,2.52,16.82,16.82,0,0,1,1.43-2.76l3.57-6.55,3.56-6.56A15.22,15.22,0,0,1,483.85,354.34Z" style="fill:#263238"></path><path d="M450,415s17.3-2.69,21.94-15.43a.58.58,0,0,0-.7-.76C468.51,399.62,460.69,402.77,450,415Z" style="fill:#FA926F"></path><g style="opacity:0.30000000000000004"><path d="M450,415s17.3-2.69,21.94-15.43a.58.58,0,0,0-.7-.76C468.51,399.62,460.69,402.77,450,415Z"></path></g><path d="M467.36,403a13.63,13.63,0,0,1-2.33,2c-1.5,1.2-3.61,2.8-6,4.49s-4.58,3.17-6.22,4.17a12.81,12.81,0,0,1-2.74,1.45,16.76,16.76,0,0,1,2.49-1.84l6.09-4.31,6.09-4.33A15.17,15.17,0,0,1,467.36,403Z" style="fill:#263238"></path><polygon points="429.49 446.89 434.46 479.45 454.28 479.41 460.96 446.89 429.49 446.89" style="fill:#455a64"></polygon><path d="M458.05,459.45s-.05.05-.16.12a5,5,0,0,1-.53.3,7.32,7.32,0,0,1-2.21.66,8.15,8.15,0,0,1-3.65-.34,7.73,7.73,0,0,1-3.92-2.85,5.51,5.51,0,0,1-.91-2.72,3,3,0,0,1,1.34-2.8,3.21,3.21,0,0,1,3.32.27,4.83,4.83,0,0,1,1.9,3,12.9,12.9,0,0,1,.25,3.68,12,12,0,0,1-.81,3.76,8.27,8.27,0,0,1-2.3,3.28,6.41,6.41,0,0,1-3.81,1.59,6.94,6.94,0,0,1-4-1.15,12.06,12.06,0,0,1-3-2.68,6.54,6.54,0,0,1-1.5-3.57,4.16,4.16,0,0,1,1.41-3.45,3.21,3.21,0,0,1,3.51-.22,3.79,3.79,0,0,1,2,2.66,5.08,5.08,0,0,1-2.51,5.15,7,7,0,0,1-4.78.69,10.68,10.68,0,0,1-3.41-1.33,18.32,18.32,0,0,1-1.91-1.29,4.54,4.54,0,0,1-.61-.52,3.77,3.77,0,0,1,.67.43c.44.29,1.08.72,2,1.19a10.75,10.75,0,0,0,3.36,1.22,6.68,6.68,0,0,0,4.54-.72,4.72,4.72,0,0,0,2.26-4.74,3.3,3.3,0,0,0-1.8-2.31,2.75,2.75,0,0,0-3,.18,3.65,3.65,0,0,0-1.2,3,6.06,6.06,0,0,0,1.4,3.28,11.48,11.48,0,0,0,2.83,2.54,6.45,6.45,0,0,0,3.66,1.07,5.89,5.89,0,0,0,3.48-1.46,7.75,7.75,0,0,0,2.16-3.07,11.62,11.62,0,0,0,.78-3.59,12.48,12.48,0,0,0-.22-3.53,4.41,4.41,0,0,0-1.67-2.71,2.77,2.77,0,0,0-2.84-.28,2.56,2.56,0,0,0-1.15,2.39,5.07,5.07,0,0,0,.83,2.53,7.34,7.34,0,0,0,3.69,2.77,8.18,8.18,0,0,0,3.52.42A9,9,0,0,0,458.05,459.45Z" style="fill:#263238"></path><path d="M67.13,398.56c4.32-2.23,9.4-2.52,14.19-1.73,2.58.43,5.26,1.2,7,3.13s2.08,5.34.07,7A6.71,6.71,0,0,1,84,408.08c-3.75,0-7.92-.7-10.91,1.55-1.71,1.29-2.85,3.43-4.9,4.07a4.82,4.82,0,0,1-5.31-2.37,8.25,8.25,0,0,1-.6-6.1A9.3,9.3,0,0,1,67.13,398.56Z" style="fill:#FA926F"></path><path d="M57.25,379.47c2.63,3.77,7.76,2.52,10.14.22s3.39-5.64,4.3-8.82c2.09-7.26,4.2-14.89,2.65-22.29a12.52,12.52,0,0,0-2.85-6.06,6.48,6.48,0,0,0-6.13-2c-2.59.69-4.19,3.22-5.36,5.63a53.25,53.25,0,0,0-5.25,22.8c0,3.67.42,7.52,2.5,10.56" style="fill:#FA926F"></path><path d="M50,384.88c2.86-3.41,3.41-8.37,2.13-12.63s-4.15-7.88-7.47-10.84a40.32,40.32,0,0,0-13.39-7.9,14.22,14.22,0,0,0-6-1,6.31,6.31,0,0,0-5.05,3.05c-1.41,2.69-.06,5.95,1.4,8.61a102.25,102.25,0,0,0,8.79,13.39c2.64,3.4,5.66,6.75,9.67,8.28s8.19,1.36,10.32-1.43" style="fill:#FA926F"></path><path d="M57.07,436.33a8.24,8.24,0,0,0,.24-1.71l.45-4.68c.22-2,.51-4.3,1.05-6.85A54.09,54.09,0,0,1,61.3,415a30.06,30.06,0,0,1,4.14-7.32,15.31,15.31,0,0,1,5.22-4.34,14.31,14.31,0,0,1,4.4-1.37,7.9,7.9,0,0,0,1.71-.25,7.83,7.83,0,0,0-1.74,0,13.51,13.51,0,0,0-4.59,1.2,15.45,15.45,0,0,0-5.51,4.38,29.15,29.15,0,0,0-4.28,7.47A49,49,0,0,0,58.17,423a60.9,60.9,0,0,0-.91,6.95c-.15,2-.2,3.59-.23,4.7A8.06,8.06,0,0,0,57.07,436.33Z" style="fill:#263238"></path><path d="M57.39,432.73a3.43,3.43,0,0,0,0-.79v-2.27c0-2,0-4.83.1-8.36.17-7.05.78-14.63,1.95-25.33,1.11-10.06,2.6-21.76,4.18-29.37.33-1.73.67-3.29,1-4.65s.57-2.55.82-3.5.39-1.63.53-2.21a4.06,4.06,0,0,0,.14-.79,3.75,3.75,0,0,0-.28.75l-.66,2.18c-.29.94-.59,2.11-.93,3.47s-.73,2.92-1.1,4.64a256.21,256.21,0,0,0-4.39,27.26c-1.17,10.72-1.7,20.48-1.75,27.54,0,3.54,0,6.4.12,8.37.06.93.11,1.68.14,2.27A2.93,2.93,0,0,0,57.39,432.73Z" style="fill:#263238"></path><path d="M57.44,413.91a14.84,14.84,0,0,0,0-2.37c-.09-1.53-.3-3.74-.73-6.44a83.87,83.87,0,0,0-2.09-9.37,76,76,0,0,0-3.92-11.09,59.17,59.17,0,0,0-11.51-17.92,28.76,28.76,0,0,0-2.71-2.52c-.41-.35-.78-.7-1.15-1l-1.05-.73a16.1,16.1,0,0,0-2-1.28c-.11.16,2.83,1.89,6.55,5.85A62.1,62.1,0,0,1,50,384.92a87.61,87.61,0,0,1,3.94,11c1,3.44,1.71,6.61,2.23,9.28s.77,4.86.95,6.37A15.11,15.11,0,0,0,57.44,413.91Z" style="fill:#263238"></path><polygon points="39.24 447.11 41.13 472.95 74.33 472.95 76.21 447.11 39.24 447.11" style="fill:#263238"></polygon><rect x="36.04" y="436.93" width="44.14" height="10.19" style="fill:#263238"></rect><polygon points="36.04 471.97 36.04 474.79 38.11 474.79 79.44 474.79 79.44 471.97 36.04 471.97" style="fill:#455a64"></polygon><polygon points="40.14 479.76 38.11 474.79 77.86 474.79 75.49 479.76 40.14 479.76" style="fill:#455a64"></polygon><path d="M75.59,455.56s0,.09-.15.24l-.5.65L73,458.93l-.09.11-.08-.12-4.75-6.57h.27L63.69,459l-.15.2-.17-.19-5.54-6.6h.32l-.31.38-5,6.22-.16.2-.16-.21c-1.68-2.38-3.25-4.61-4.68-6.62h.28l-5.77,6.57-.1.11-.08-.13-1.8-3-.47-.81a1.08,1.08,0,0,1-.14-.29,1.72,1.72,0,0,1,.2.26c.13.21.3.46.51.78l1.89,3h-.18l5.67-6.65L48,452l.13.18,4.72,6.59h-.32l5-6.23.3-.38.16-.2.16.19c2,2.32,3.81,4.56,5.54,6.62h-.31l4.72-6.59.14-.19.13.19L73,458.8h-.16l2-2.42.54-.62A1.14,1.14,0,0,1,75.59,455.56Z" style="fill:#e0e0e0"></path><path d="M76.67,446.94c0,.12-8.31.21-18.57.21s-18.58-.09-18.58-.21,8.31-.2,18.58-.2S76.67,446.83,76.67,446.94Z" style="fill:#455a64"></path><path d="M78.35,475.07c0,.11-9,.2-20.19.2S38,475.18,38,475.07s9-.21,20.19-.21S78.35,475,78.35,475.07Z" style="fill:#263238"></path></g></svg>